inDegrees=yes
name=ik_S57_A07_T01
DataType=double
version=3
OpenSimVersion=4.3-2021-08-27-4bc7ad9
endheader
time	pelvis_tilt	pelvis_list	pelvis_rotation	pelvis_tx	pelvis_ty	pelvis_tz	hip_flexion_r	hip_adduction_r	hip_rotation_r	knee_angle_r	knee_angle_r_beta	ankle_angle_r	subtalar_angle_r	mtp_angle_r	hip_flexion_l	hip_adduction_l	hip_rotation_l	knee_angle_l	knee_angle_l_beta	ankle_angle_l	subtalar_angle_l	mtp_angle_l	lumbar_extension	lumbar_bending	lumbar_rotation	arm_flex_r	arm_add_r	arm_rot_r	elbow_flex_r	pro_sup_r	wrist_flex_r	wrist_dev_r	arm_flex_l	arm_add_l	arm_rot_l	elbow_flex_l	pro_sup_l	wrist_flex_l	wrist_dev_l
6.399999999999952	-5.689588726991727	-4.244421009364721	25.71832845199495	0	0.9399999999999999	0	23.63345161307733	-8.728366304700867	-7.371899671358154	27.93812191416125	0.4876122142256945	0	0	0	23.63345161307733	-8.728366304700867	-7.371899671358154	27.93812191416125	0.4876122142256945	0	0	0	-5.895366486459182	-3.432373054245206	2.091798253112217	51.00697028773995	4.294743481224089	1.947207285656866	63.66223728125024	97.18968528775538	0	0	16.52294950408078	-9.164546804424351	11.59368537658396	47.66102331875982	126.4554230767818	0	0
6.419999999999951	-5.746056449449688	-4.343286585737474	25.69297300894706	0	0.9399999999999999	0	23.63677317195756	-8.728988956608983	-7.372733385288668	27.94130398090042	0.4876677517673111	0	0	0	23.63677317195756	-8.728988956608983	-7.372733385288668	27.94130398090042	0.4876677517673111	0	0	0	-5.992908859722755	-3.489183246285398	2.038864164892627	51.23077385768107	4.412750951459661	1.969394298246945	63.62588514209717	97.07191601461514	0	1.077613842297402e-35	16.68544552889358	-9.247797593128926	11.48149883566576	47.70850884603959	126.4852967442806	0	1.077613842297402e-35
6.439999999999951	-5.772158595184899	-4.394992383435346	25.72802059270528	0	0.9399999999999999	0	23.64317974394253	-8.730205705585229	-7.374354142030734	27.94737423372253	0.4877736976654855	0	0	0	23.64317974394253	-8.730205705585229	-7.374354142030734	27.94737423372253	0.4877736976654855	0	0	0	-6.042127641355755	-3.518007285334387	1.993493391273194	51.50200061428448	4.414210377203965	2.105546705963287	63.39753853091968	96.60290208638251	0	0	16.75180202029864	-9.274108433336455	11.43269845196344	47.74839758809994	126.5092261372238	0	0
6.45999999999995	-5.803660021605785	-4.439581866504312	25.72973592629015	0	0.9399999999999999	0	23.64805184545524	-8.731125206515367	-7.375582084435363	27.95201410549155	0.4878546787047251	1.616420763446103e-35	0	0	23.64805184545524	-8.731125206515367	-7.375582084435363	27.95201410549155	0.4878546787047251	1.616420763446103e-35	0	0	-6.095617932355471	-3.533075294479422	1.914838735059943	51.66550119166223	4.536259122872494	2.30515465380531	63.33101548568238	96.13564513128554	0	0	16.82431567713838	-9.279777133750832	11.33296876831119	47.75960197924086	126.5229158754199	0	0
6.47999999999995	-5.849263345563276	-4.476650657588913	25.68815645385586	0	0.9399999999999999	0	23.65281392450179	-8.732016959729636	-7.376776598141556	27.95658016537075	0.4879343714834603	0	0	0	23.65281392450179	-8.732016959729636	-7.376776598141556	27.95658016537075	0.4879343714834603	0	0	0	-6.156977384183133	-3.538472658504845	1.861918697695782	51.86172498574958	4.596225224209457	2.51012169841328	63.26291938039493	95.99646678123111	0	0	16.9081205369758	-9.284027231406407	11.26416101309508	47.79194969594933	126.5231883554069	0	0
6.499999999999949	-5.880111125003303	-4.528728308665255	25.72851649466539	0	0.9399999999999999	0	23.65901597391268	-8.733161635051346	-7.378318840564553	27.9625979482346	0.4880394016081047	0	0	0	23.65901597391268	-8.733161635051346	-7.378318840564553	27.9625979482346	0.4880394016081047	0	0	0	-6.212885597525693	-3.560921307550087	1.788316117478977	52.06171439672863	4.67839969795827	2.582708873500493	63.18933125705597	95.44116493322413	0	8.656049605276639e-36	16.99577951675975	-9.328089853657755	11.26835366252082	47.80678761548284	126.5460680831759	0	8.656049605276639e-36
6.519999999999949	-5.891620131533094	-4.568012439819332	25.79566888350973	0	0.9399999999999999	0	23.66536190591614	-8.734334002941585	-7.379897960013606	27.9687470263449	0.4881467232670917	0	0	0	23.66536190591614	-8.734334002941585	-7.379897960013606	27.9687470263449	0.4881467232670917	0	0	0	-6.246003885660842	-3.579903577716136	1.710248741860662	52.17605144693801	4.739645084573985	2.616175365018929	63.07119101684972	94.64478497706482	0	-4.999680192564635e-53	17.04006686608469	-9.337032341858981	11.26107993804523	47.82831984902182	126.5765427658515	0	-4.999680192564635e-53
6.539999999999949	-5.923279604069815	-4.603838159570481	25.79529798687114	0	0.9399999999999999	0	23.76287756014732	-8.744855132148105	-7.399067561268299	28.06372669349604	0.4898044311813274	0	0	0	23.76287756014732	-8.744855132148105	-7.399067561268299	28.06372669349604	0.4898044311813274	0	0	0	-6.298830433247255	-3.581105064833039	1.634776311365297	52.29086353019256	4.807486995528067	2.772373174011524	63.01640752672332	94.13492113524426	0	0	17.12585633218812	-9.375124353583056	11.20562047945464	47.84747281113486	126.5558537866945	0	0
6.559999999999948	-5.955511173184625	-4.64111726234673	25.82530341012095	0	0.9399999999999999	0	23.85631268061676	-8.757174333816524	-7.419075049951259	28.15359259877629	0.4913728871137531	0	0	0	23.85631268061676	-8.757174333816524	-7.419075049951259	28.15359259877629	0.4913728871137531	0	0	0	-6.350775620248121	-3.587285335340023	1.584560312123587	52.45097738266642	4.819311574155122	2.837065569506532	62.91124708763516	93.63557539200582	0	0	17.19468967396493	-9.385833440767337	11.16929669892651	47.86729650283016	126.5446741159955	0	0
6.579999999999948	-5.985631568417039	-4.686534191774871	25.87709684653068	0	0.9399999999999999	0	23.91609424980694	-8.766709766109031	-7.43302432100161	28.21023153519392	0.4923614230390685	0	0	0	23.91609424980694	-8.766709766109031	-7.43302432100161	28.21023153519392	0.4923614230390685	0	0	0	-6.399786395687908	-3.610791458277128	1.581524970982031	52.62789341199542	4.824074455628269	2.788245113664317	62.82180063753096	93.42043017058285	0	0	17.28408301987691	-9.389339209695377	11.16083601011475	47.86602103951228	126.5865986198946	0	0
6.599999999999947	-6.014732529186751	-4.701673437932004	25.89156919337683	0	0.9399999999999999	0	23.97102682803756	-8.776458228102133	-7.446484598145448	28.26204851132637	0.4932657998810072	0	0	0	23.97102682803756	-8.776458228102133	-7.446484598145448	28.26204851132637	0.4932657998810072	0	0	0	-6.434881878617882	-3.60735491370841	1.575609040078679	52.68123865740736	4.833496653462107	2.80352241089853	62.82926305046057	93.2663292265036	0	0	17.34636844150516	-9.389040799749866	11.19110382002672	47.88885964876136	126.5504279918013	0	0
6.619999999999947	-6.053330034794177	-4.730892364925212	25.88518774393953	0	0.9399999999999999	0	24.01510427214111	-8.776396475972572	-7.451828795173072	28.30681600263105	0.4940471400021316	0	0	0	24.01510427214111	-8.776396475972572	-7.451828795173072	28.30681600263105	0.4940471400021316	0	0	0	-6.488600931464902	-3.604578665233744	1.518778835686354	52.91364629906477	4.865119371319181	2.867629400420318	62.65033136398245	93.1110687160466	0	0	17.39484700125262	-9.36366390628665	11.0513583407582	47.89165520599949	126.6877183930842	0	0
6.639999999999946	-6.100588972117587	-4.750290329138246	25.84137838547568	0	0.9399999999999999	0	24.15614461514731	-8.794156889001632	-7.481310908000489	28.44307185300457	0.4964252532162544	0	0	0	24.15614461514731	-8.794156889001632	-7.481310908000489	28.44307185300457	0.4964252532162544	0	0	0	-6.54470621253988	-3.591288030864777	1.516501794444354	53.09473123851365	4.853988895526077	2.955168235031386	62.62605728705783	93.17166673473609	0	0	17.45244124942728	-9.374230340234515	11.0491873472555	48.01525086157369	126.5715804314315	0	0
6.659999999999946	-6.141961049443237	-4.780366540534883	25.80631982953152	0	0.9399999999999999	0	24.15930356071826	-8.794735109436903	-7.482092946417966	28.44610764273704	0.4964782377424842	0	0	0	24.15930356071826	-8.794735109436903	-7.482092946417966	28.44610764273704	0.4964782377424842	0	0	0	-6.595127765997487	-3.600313532367781	1.520165871888088	53.23693906529271	4.810146500521502	3.045847195281216	62.58707254843699	93.27491789903597	0	0	17.5176326432243	-9.394646997577	11.07050739417986	47.98006641914196	126.6191423172294	0	0
6.679999999999946	-6.198390583270935	-4.799500522287334	25.74695363535269	0	0.9399999999999999	0	24.16266009989771	-8.795350390062813	-7.482924689732026	28.44932831774383	0.4965344491254894	0	0	0	24.16266009989771	-8.795350390062813	-7.482924689732026	28.44932831774383	0.4965344491254894	0	0	0	-6.654618945093079	-3.592593336884934	1.523315385202089	53.33985308522099	4.75382220462576	3.200738938911467	62.72194880057226	93.39998125780399	0	0	17.59596633358605	-9.404942290909748	11.1067285829748	47.96996816564396	126.6273629976659	0	0
6.699999999999945	-6.313644105640957	-4.795147068068953	25.61128215076946	0	0.9399999999999999	0	24.16766584999203	-8.796283016567049	-7.48417760618056	28.45406179299643	0.4966170638537089	0	0	0	24.16766584999203	-8.796283016567049	-7.48417760618056	28.45406179299643	0.4966170638537089	0	0	0	-6.758985157563679	-3.53468340612927	1.512309193875004	53.43917958293294	4.665965215818914	3.092715882849635	63.19738292781568	93.81966530674187	0	0	17.74701086601857	-9.358728442249749	11.04629413936591	47.97767089763831	126.6495420124809	0	0
